<svg width="60" height="60" viewBox="0 0 60 60" fill="none" xmlns="http://www.w3.org/2000/svg">
<path d="M21.6943 37.4814L22.9108 36.7917L23.5325 36.0875L23.9505 34.7756L24.4435 33.1936L24.6364 31.7515L24.5453 30L24.1916 28.5006L23.5432 26.9283L22.959 25.9009L22.1927 25.0472L21.0941 24.4443L20.0383 24.0729L19.0255 23.933L17.9215 23.9572L16.7586 24.2273L15.6814 24.7337L14.8668 25.298L14.2558 25.9443L13.6878 26.7016L13.1787 27.6566L12.7339 28.5006L12.4069 29.0457L11.855 30L11.3298 31.3801L10.8099 32.229L10.1293 32.9766L9.78097 33.5939L9.53981 34.5923L9.45943 35.9139L9.6202 37.3222L9.90423 38.3255L10.4669 39.3673L11.1475 40.1342L12.4391 40.8721L13.4573 41.2049L14.8989 41.3544L16.2387 41.2676L17.7929 41.2097L18.8165 40.9686L19.5881 40.2355L20.0383 39.6084L20.4885 38.8705L20.8315 38.2772L21.2495 37.8528C21.2673 37.8496 21.4156 37.7258 21.6943 37.4814Z" fill="black" stroke="black" stroke-width="0.6564" stroke-linecap="square" stroke-linejoin="bevel"/>
<path d="M20.28 33C20.9427 33 21.48 32.221 21.48 31.26C21.48 30.299 20.9427 29.52 20.28 29.52C19.6173 29.52 19.08 30.299 19.08 31.26C19.08 32.221 19.6173 33 20.28 33Z" fill="white" stroke="black" stroke-width="0.6564" stroke-linecap="square" stroke-linejoin="bevel"/>
<path d="M39.0459 37.3614L37.8104 36.6717L37.1789 35.9675L36.7544 34.6556L36.2537 33.0736L36.0577 31.6315L36.1503 29.88L36.5095 28.3806L37.1681 26.8083L37.7614 25.7809L38.5397 24.9272L39.6555 24.3243L40.7278 23.9529L41.7566 23.813L42.8778 23.8372L44.059 24.1073L45.153 24.6137L45.9804 25.178L46.6009 25.8243L47.1779 26.5816L47.6949 27.5366L48.1467 28.3806L48.4787 28.9257L49.0394 29.88L49.5728 31.2601L50.1008 32.109L50.792 32.8566L51.1458 33.4739L51.3908 34.4723L51.4724 35.7939L51.3091 37.2022L51.0207 38.2055L50.4491 39.2473L49.7579 40.0142L48.4461 40.7521L47.4119 41.0849L45.9477 41.2344L44.587 41.1476L43.0085 41.0897L41.9689 40.8486L41.1851 40.1155L40.7278 39.4884L40.2706 38.7505L39.9222 38.1572L39.4977 37.7328C39.4796 37.7296 39.329 37.6058 39.0459 37.3614Z" fill="black" stroke="black" stroke-width="0.66152" stroke-linecap="square" stroke-linejoin="bevel"/>
<path d="M40.4824 32.88C39.8093 32.88 39.2636 32.101 39.2636 31.14C39.2636 30.179 39.8093 29.4 40.4824 29.4C41.1555 29.4 41.7012 30.179 41.7012 31.14C41.7012 32.101 41.1555 32.88 40.4824 32.88Z" fill="white" stroke="black" stroke-width="0.66152" stroke-linecap="square" stroke-linejoin="bevel"/>
<path d="M30.66 43.56C32.6814 43.56 34.32 42.6467 34.32 41.52C34.32 40.3934 32.6814 39.48 30.66 39.48C28.6386 39.48 27 40.3934 27 41.52C27 42.6467 28.6386 43.56 30.66 43.56Z" fill="black" stroke="black" stroke-width="0.6564" stroke-linecap="square" stroke-linejoin="bevel"/>
<path d="M30.7563 43.7178L30.7601 44.9319L30.8207 45.8221L30.9572 46.5622L31.1694 47.0021L31.5559 47.3875L31.9273 47.691L32.5033 48.0423L33.0338 48.247L33.7007 48.3424L34.3753 48.3118L35.0157 48.1549L35.5311 47.8582L36.0237 47.5342L36.3685 47.2408L36.7513 46.7224L37.0696 46.204L37.206 45.8664L37.1529 45.8766L37.1871 45.8903L37.1795 45.9107L37.1757 45.9278L37.2 45.9" stroke="black" stroke-width="0.6564" stroke-linecap="square" stroke-linejoin="bevel"/>
<path d="M30.3774 43.7314L30.4115 45.9619L30.3508 46.3746L30 46.8964L29.6953 47.2613L29.1988 47.6876L28.7593 48.0048L28.2212 48.2572L27.6452 48.3322L26.9744 48.322L26.4098 48.2197L25.8035 47.8923L25.3525 47.5376L24.9205 47.1249L24.5416 46.6133L24.1854 46.1017L23.97 45.75" stroke="black" stroke-width="0.6564" stroke-linecap="square" stroke-linejoin="bevel"/>
<path d="M57.0733 19.9886L56.5503 18.9996L55.8038 17.8127L54.8754 16.4212L53.6893 14.8421L52.6547 13.7269L51.4004 12.4923L49.9339 11.1656L48.581 10.1185L47.4177 9.33412L46.2278 8.58039L44.9621 7.83008L43.92 7.1889L44.6059 6.07365L45.2084 5.10506L46.0952 3.97959L47.0198 2.88822L47.6564 2.27774L48.2286 1.95374L49.0055 1.77298L49.9112 1.8446L51.029 2.00148L52.1128 2.36641L53.1663 2.85071L54.3221 3.59761L55.4589 4.5662L56.232 5.31993L56.9293 6.24759L57.4674 7.10704L58.1116 8.29391L58.5549 9.30342L58.8392 10.1765L59.0589 11.2508L59.1878 12.1103L59.2636 13.1744L59.2522 14.01L59.2181 14.9547L59.1461 16.1109L59.0021 17.1613L58.8619 17.9048L58.5512 18.6824L58.1608 19.269L57.6038 19.784C57.6038 19.7931 57.4269 19.8613 57.0733 19.9886Z" fill="black" stroke="black" stroke-width="0.6564" stroke-linecap="square" stroke-linejoin="bevel"/>
<path d="M57.75 19.53C57.5568 19.53 57.3 19.5527 57.3 19.74" stroke="black" stroke-width="0.6564" stroke-linecap="square" stroke-linejoin="bevel"/>
<path d="M16.1735 7.25492L14.9007 7.97617L13.6279 8.78227L12.2703 9.6308L10.9975 10.4793L10.1065 11.243L9.13074 12.0067L8.07008 13.0674L7.00942 14.2129L6.1609 15.2311L5.31237 16.3342L4.59112 17.3524L3.99715 18.3282L3.44561 19.2192L3.06377 19.898L2.51222 19.4313L2.0031 18.7101L1.53641 17.6494L1.23943 16.5888L1.06972 15.1038L1.0273 13.6613L1.11215 12.0491L1.32428 10.352L1.66369 9.37624L2.38495 7.89131L3.19105 6.49124L3.86987 5.51544L5.01538 4.36992L6.03362 3.64867L7.1367 3.01228L8.32464 2.54559L9.72471 2.2486L10.8702 2.03647L12.0582 2.12132L12.6946 2.2486L13.2461 2.46073L13.6279 2.80014L14.0098 3.30926L14.434 4.07294L14.9856 5.17602L15.5371 6.19426C15.5371 6.19426 15.7493 6.54781 16.1735 7.25492Z" fill="black" stroke="black" stroke-width="0.6564" stroke-linecap="square" stroke-linejoin="bevel"/>
</svg>
